<svg height="960" viewBox="0 0 960 960" width="960" xmlns="http://www.w3.org/2000/svg"><g fill="none" fill-rule="evenodd"><path d="m324.627588 45.4955507 382.744824-22.5434542c27.40856-1.6143488 49.627588 20.1222381 49.627588 48.5500256v807.7311359c0 28.427788-22.219028 50.164375-49.627588 48.550026-12.792109-.815156-23.131461-1.454992-31.018056-1.919508-8.977005-.528741 3.484063-38.220829-5.209627-38.732882-109.95141-6.476076-246.305891-13.864707-310.940132-17.671628-7.853027-.462539 7.18405 38.299166 0 37.87603-7.906002-.465659-19.765005-1.164148-35.577009-2.095466-27.40856-1.614349-49.627588-24.531482-49.627588-51.186849v-757.3705818c0-26.6553671 22.219028-49.5724998 49.627588-51.1868485z" stroke="#000" stroke-linecap="round" stroke-linejoin="round" stroke-width="20" transform="matrix(-1 0 0 1 1032 0)"/><path d="m618.509651 22.8676902 92.013328 17.2840094c26.9508 5.0625045 46.477021 28.5980814 46.477021 56.0202367v767.2752747c0 27.591686-19.76254 51.221799-46.919299 56.101511l-85.937632 15.443782c-3.676079 1.164094-7.552877 1.876345-11.572313 2.079472l-.346919.060334.000291-.044096c-1.616221.069759-3.255142.057268-4.913012-.041175l-35.311449-2.097349.000333-44.94969-312-20.540734-.000333 46.964424-36.22745-2.150885c-27.465425-1.630876-49.73055-24.782614-49.73055-51.710856v-765.1238976c0-26.9282421 22.265125-50.0799809 49.73055-51.710856l383.538899-22.7742349c3.848736-.2285348 7.595356.0061544 11.192904.6577565z" stroke="#000" stroke-linecap="round" stroke-linejoin="round" stroke-width="40" transform="matrix(-1 0 0 1 931.041666 0)"/><path d="m669.041667 677 74 3.114713v30.830853l-74-2.592236zm0-58 74 3.065903v29.930807l-74-2.558678z" fill="#000" transform="matrix(-1 0 0 1 1412.083334 0)"/></g></svg>