<svg height="960" viewBox="0 0 960 960" width="960" xmlns="http://www.w3.org/2000/svg"><g style="stroke:#000;stroke-width:40;fill:none;fill-rule:evenodd;stroke-linecap:round;stroke-linejoin:round"><path d="m61.5612463 28.9793049c4.3369215-.6995035 8.8137437-.9793049 13.2905659-.9793049h226.6391238c8.673844 0 17.627488 1.1192056 25.322026 5.4561271 12.17136 6.5753326 21.824508 18.6067923 24.062919 32.456961 1.259107 7.8344388.839405 15.8087784.839405 23.7831179v247.624228c0 8.673843.419702 17.347686-.839405 26.021529-2.518212 15.668878-14.12997 29.379146-28.819543 35.254975-6.995034 2.798014-14.549672 3.217716-21.824508 3.217716-75.546375 0-151.092749 0-226.639124 0-11.6117576.139901-23.6432173-3.077815-32.456961-10.912254-11.0521548-9.093545-17.2077854-22.943714-16.927984-36.933783-.1399007-89.536444 0-179.072888-.1399007-268.6093325 0-9.6531479-.4197021-19.8658985 3.6374181-28.8195429 6.0157298-13.8501687 18.8865936-24.7624229 33.8559679-27.5604367"/><path d="m487.159874 29.1205987c4.512929-.840449 9.171437-1.1205987 13.829944-1.1205987h381.415297c8.734701 0 17.76056.8404491 25.621791 4.7625447 13.684365 6.7235925 24.457164 19.610478 26.495261 34.4584114 1.164627 8.2644158.582313 16.8089812.727892 25.073397v249.3332209c0 10.925838.582313 22.55205-4.367351 32.637439-6.405448 13.447185-19.5075 23.952798-34.647649 26.474145-8.88028 1.540823-17.906138.980524-26.931996.980524-123.304869 0-246.609738 0-369.769028 0-11.791847.140075-23.729273-3.081647-32.755131-10.505613-11.646268-8.824715-18.197294-22.8322-18.051716-36.979759-.145578-90.628423 0-181.256847-.145578-271.8852708 0-8.96479.145578-18.3498045 4.076194-26.7542951 6.551026-13.0269604 19.507499-23.5325736 34.50207-26.4741454"/><path d="m62.7437894 499.239488c4.618465-.865963 9.2369299-1.01029 13.8553949-1.154617h427.2080087c11.69049-.288654 23.525306 3.175195 32.329255 10.968855 11.401835 9.092602 18.185206 23.380978 17.752225 38.102336v333.539766c0 9.525584-1.587598 19.195495-6.639044 27.422136-8.515294 14.57703-24.968576 24.246941-41.999165 23.81396-143.461068 0-286.777809 0-430.238877 0-12.5564517.288654-25.4015573-3.608176-34.6384873-12.267798-10.8245272-9.381257-16.5976084-23.525306-16.3089544-37.669355-.144327-107.812291 0-215.480256 0-323.292547 0-10.535873-.5773081-21.504728 3.7525028-31.174639 6.2060623-14.288376 19.4841491-25.545884 34.9271413-28.288097"/><path d="m684.447229 499.27595c4.473802-.865897 9.236236-1.010213 13.854354-1.15453h180.395225c9.669185 0 19.915633.144317 28.863237 4.473802 14.431618 6.927177 25.832596 21.214479 27.420074 37.377891.865897 8.658971.432948 17.317941.432948 25.976912v314.609274c.144317 11.400978-2.597691 23.234905-9.957816 32.326825-9.091919 12.266875-24.245118 19.338368-39.542633 19.049735-62.055958.144317-124.256232 0-186.31219 0-9.380551 0-18.905419-.865897-27.275758-5.339698-12.122559-6.349912-21.791743-17.895207-24.966699-31.316611-1.298846-5.772648-1.443162-11.833927-1.587478-17.750891.144316-110.69051-.144316-221.236705.144316-331.927215-.432948-21.93606 16.884993-42.428957 38.53242-46.325494"/></g></svg>