<svg height="960" viewBox="0 0 960 960" width="960" xmlns="http://www.w3.org/2000/svg"><g fill="none" fill-rule="evenodd"><path d="m342.565827 72.3874188c32.194216-8.0269194 64.51388-11.7082789 96.404494-11.4055363l.743214.0077777c6.759765.0773093 13.500066.3336283 20.21562.7655875l51.448717 1.9655859c95.083925-2.6162581 186.727688 29.2053217 260.49158 86.6228314 72.366544 56.32982 127.521229 137.285435 151.7333 234.394751 28.073477 112.596566 9.224193 225.542801-43.856967 317.14292-53.243935 91.881014-140.907541 162.297077-250.295532 189.570566-11.18517 2.788776-22.381403 5.072001-33.5648 6.864347-2.415809.591624-4.794658 1.167689-7.137282 1.721546-14.250517 3.36919-28.650732 6.556645-43.198999 9.56259-8.815268 2.071693-17.637089 3.811141-26.453129 5.233987-.508186.09483-1.016939.190486-1.526812.286344l-.893238.167876c-103.467277 15.942966-206.227605-11.496204-289.801396-70.755364-82.285576-58.345733-145.9478311-147.552798-173.0417487-256.220566-28.7385384-115.263982-10.8713483-230.506171 41.0791481-323.672766 52.2738706-93.746525 139.0101826-165.1645733 247.6538306-192.2524772z" stroke="#000" stroke-linejoin="round" stroke-width="40" transform="matrix(-1 0 0 1 976.710552 0)"/><path d="m629.306286 888.889776c206.297537-51.435753 329.045614-271.568786 274.165503-491.680891-54.880112-220.112104-266.60643-356.8513047-472.903967-305.4155517-206.297538 51.4357527-329.045614 271.5687857-274.165503 491.6808907 54.880112 220.112105 266.60643 356.851305 472.903967 305.415552z" stroke="#000" stroke-linecap="round" stroke-linejoin="round" stroke-width="20" transform="matrix(-1 0 0 1 1059.874108 0)"/><g fill="#000"><path d="m594.503999 749.305425c134.045533-33.421305 213.803302-176.4567 178.143963-319.478496-35.659339-143.021797-173.23232-231.87055-307.277853-198.449245s-213.803302 176.4567-178.143963 319.478497c35.659339 143.021796 173.232319 231.870549 307.277853 198.449244z" transform="matrix(-1 0 0 1 1059.874108 0)"/><g transform="matrix(.9998477 -.01745241 .01745241 .9998477 186.728252 456.594694)"><path d="m665.912429 19.6086054v-19.22471914h-21.213483v19.22471914h-18.893259v20.8820224h18.893259v18.8932585h21.213483v-18.8932585h18.893258v-20.8820224z"/><path d="m-.1943128 39.3838863h59v-18h-59z"/></g><circle cx="529.924171" cy="160.876777" r="11.876777"/></g></g></svg>