<svg height="960" viewBox="0 0 960 960" width="960" xmlns="http://www.w3.org/2000/svg"><g fill="none" fill-rule="evenodd" stroke="#000" stroke-linejoin="round"><path d="m330.009929 72.3874188c32.226973-8.0350868 64.57965-11.715766 96.501839-11.4045998l95.994105 1.9269075c93.372503-.1501997 182.74414 32.2846907 254.450406 89.0198775 70.170656 55.520188 123.427254 134.298088 146.913865 228.497739 26.227886 105.194306 10.650311 210.835668-36.056024 298.887369-47.195022 88.972981-126.170754 159.980298-225.947651 194.53995l.531531-.187662-.075059.749431c-30.5331 9.978952-57.495247 17.747563-80.881267 23.324686l-1.249401.296678c-6.750498 1.595992-14.530474 3.322081-23.338623 5.176859-6.069959 1.836565-12.213209 3.53142-18.428381 5.081036-20.045574 4.997923-40.139844 8.31083-60.14607 10.026732-2.000366.352563-4.023666.716241-6.069743 1.082726l-16.192456-14.464148 13.989494 14.000136c-96.661721 6.177564-190.942598-24.729211-267.552847-83.133417l-2.316099-1.778232c-75.39341-58.295086-133.3444826-143.377276-158.860598-245.716825-28.7385384-115.263982-10.8713483-230.506171 41.0791482-323.672766 52.2738698-93.746525 139.0101828-165.1645733 247.6538308-192.2524772z" stroke-width="40" transform="matrix(-1 0 0 1 964.154654 0)"/><g stroke-linecap="round" stroke-width="20"><path d="m629.306286 888.889776c206.297537-51.435753 329.045614-271.568786 274.165503-491.680891-54.880112-220.112104-266.60643-356.8513047-472.903967-305.4155517-206.297538 51.4357527-329.045614 271.5687857-274.165503 491.6808907 54.880112 220.112105 266.60643 356.851305 472.903967 305.415552z" transform="matrix(-1 0 0 1 1059.874108 0)"/><path d="m547.542419 262.494697v25.022198" transform="matrix(-1 0 0 1 1095.084838 0)"/></g></g></svg>