<?xml version="1.0" encoding="utf-8"?>
<!-- Generator: Adobe Illustrator 25.2.1, SVG Export Plug-In . SVG Version: 6.00 Build 0)  -->
<svg version="1.1" id="Layer_1" xmlns="http://www.w3.org/2000/svg" xmlns:xlink="http://www.w3.org/1999/xlink" x="0px" y="0px"
	 viewBox="0 0 960 960" style="enable-background:new 0 0 960 960;" xml:space="preserve">
<style type="text/css">
	.st0{fill:none;stroke:#000000;stroke-width:40;stroke-linecap:round;stroke-linejoin:round;}
	.st1{fill:none;stroke:#000000;stroke-width:20;stroke-linecap:round;stroke-linejoin:round;}
	.st2{fill-rule:evenodd;clip-rule:evenodd;}
</style>
<g>
	<path class="st0" d="M545.8,25.3c0.5,0.1,1,0.1,1.5,0.2l0,0c25.2,1.3,50.6,5.1,75.9,11.5c225.4,57.2,359.6,302.2,299.6,547.1
		c-50.9,207.7-225,348.7-414.2,351.8l0,0c-21.8,1.3-50.8,1.4-90.6,0.4c-13.5-0.4-69.6-8.6-83-12C109.5,867-24.7,622.1,35.3,377.2
		c43.5-177.6,177.1-306.4,333.1-342C412.5,25.2,499.7,19.5,545.8,25.3L545.8,25.3z"/>
	<path class="st1" d="M405.3,924.8C179.1,867.5,44.5,622.1,104.7,376.7S397-21.1,623.2,36.2S983.9,339,923.8,584.3
		S631.5,982.2,405.3,924.8z"/>
	<g>
		<path class="st2" d="M405.7,924.9c-136.3-34.6-239.3-137.6-286.4-267.7C172.8,770.6,272.8,858.6,401.4,890
			c208.7,50.9,422.3-64.4,509.9-263.3C836.3,847,618.3,978.9,405.7,924.9L405.7,924.9z"/>
	</g>
	<path class="st2" d="M735.9,629.1l-435.1,11c-39.1,1-71.4-30.1-71.9-69.2l-2.3-179.6c-0.5-39.7,32.1-72,71.8-71l437.4,10.4
		c38.1,0.9,68.5,32,68.5,70.1V559C804.2,597,773.9,628.1,735.9,629.1z"/>
</g>
</svg>
