<svg height="960" viewBox="0 0 960 960" width="960" xmlns="http://www.w3.org/2000/svg"><g fill="none" fill-rule="evenodd"><g stroke="#000" stroke-linecap="round" stroke-linejoin="round"><path d="m348.987641 167.517082c17.801659 0 35.188808 2.002725 51.99417 5.819406l.917408-.648582c70.731318 18.464549 129.097699 33.845231 175.099145 46.142047 44.758163 11.964468 87.719737 25.089835 128.884722 39.376101l3.426257 1.193209-.033662.314109c101.337813 22.348582 195.384518 129.300492 220.011414 257.868481 27.733684 144.787393-53.749923 262.160766-181.99873 262.160766l.809819-.007528c-18.615175 1.467389-96.406371 6.400832-234.030867-.376108-34.834622-1.715335-95.648968-8.545623-182.443037-20.490864l-2.638075-.363543-.296649-.31907c-93.171296-8.053103-172.709847-71.079549-213.192374-160.389923-48.2671132-11.538553-76.2570918-29.230045-83.9694109-53.076344-12.9177254-39.941284-8.5665541-106.561506 6.2892318-180.100034 14.8557859-73.538527 71.4513631-103.224628 89.7396191-102.585988 4.943393.172627 14.460658.504978 28.551796.997051 47.896344-58.722729 116.580474-95.513186 192.879223-95.513186z" stroke-width="40"/><path d="m357 168c17.630023 0 34.847031 2.025348 51.483335 5.883979l1.228754-.883979c69.782847 18.49796 127.366565 33.906473 172.751155 46.225538 45.384589 12.319066 88.896841 25.866639 130.536756 40.64272l-.056604.535496c99.856485 22.582552 192.435401 129.324509 216.70826 257.596246 27.381315 144.698604-53.067005 262-179.686352 262-.012345 0-.02469-.000001-.037035-.000003-20.445799 1.571845-96.731006 6.133561-229.455815-.476302-34.693464-1.727778-95.522732-8.659655-182.487805-20.79563l-.51109-.561697c-133.368047-11.430613-238.473559-138.990074-238.473559-294.666368 0-163.200144 115.510535-295.5 258-295.5z" stroke-width="20"/><path d="m748.652443 769.685652c128.338792 0 209.879571-112.744265 182.126427-251.821365-27.753143-139.077099-143.607892-251.821364-258.768823-251.821364-115.160932 0-196.701711 112.744265-182.126428 251.821364 14.575283 139.0771 130.430032 251.821365 258.768824 251.821365z" stroke-width="20"/></g><g fill="#000"><path d="m607.976554 360.059787c6.589576.177054 14.711246 6.823802 18.140257 14.845926l23.800301 55.680472c3.429011 8.022125.174178 14.668872-7.269873 14.845926-7.44405.177054-16.020916-6.281053-19.156964-14.424586l-21.766886-56.523152c-3.136049-8.143533-.336411-14.60164 6.253165-14.424586z"/><path d="m645.020359 361.019178c6.626774.176817 15.130829 6.676169 18.994338 14.51671l26.816091 54.420123c3.863509 7.84054.926842 14.339892-6.55923 14.516709s-16.447892-6.134147-20.016784-14.095933l-24.771199-55.261675c-3.568893-7.961787-1.08999-14.272751 5.536784-14.095934z"/><path d="m758.642653 363.897407c6.214845.17692 15.205007 6.234512 20.08009 13.530011l33.837286 50.637063c4.875082 7.295498 3.135694 13.35309-3.885034 13.53001-7.020727.17692-16.440199-5.692175-21.038979-13.10899l-31.919506-51.479104c-4.598781-7.416815-3.288701-13.28591 2.926143-13.10899z"/><path d="m789.011397 364.856812c6.151976.176656 15.363622 6.086837 20.574786 13.200758l36.169983 49.376759c5.211164 7.113921 3.801797 13.024101-3.14791 13.200757s-16.586319-5.545308-21.523976-12.780365l-34.271603-50.217544c-4.937657-7.235056-3.953256-12.957021 2.19872-12.780365z"/><path d="m679.932755 733.801676c3.562598 8.33465 8.906495 20.836623 16.031692 37.505922 3.429011 8.022124.174178 14.668871-7.269872 14.845925-7.444051.177054-16.020916-6.281053-19.156965-14.424585-5.852101-15.196441-10.241177-26.593772-13.167227-34.191992-2.866553-7.443721 20.972836-9.793453 23.562372-3.73527z" transform="matrix(1 0 0 -1 0 1516.510632)"/><path d="m722.857525 742.305181c2.689325 5.457669 6.723311 13.644173 12.10196 24.559512 3.863509 7.84054.926841 14.339892-6.559231 14.516709s-16.447891-6.134147-20.016784-14.095933c-5.275848-11.769805-9.232733-20.597159-11.870657-26.482061-4.300181-9.593205 21.440002-8.451764 26.344712 1.501773z" transform="matrix(1 0 0 -1 0 1515.57586)"/><path d="m796.056113 714.049019c6.214845.17692 15.205007 6.234512 20.08009 13.53001l33.837285 50.637064c4.875083 7.295498 3.135694 13.35309-3.885033 13.53001s-16.440199-5.692175-21.038979-13.10899l-31.919507-51.479104c-4.59878-7.416815-3.288701-13.28591 2.926144-13.10899z" transform="matrix(1 0 0 -1 0 1505.795122)"/></g></g></svg>