<svg height="960" viewBox="0 0 960 960" width="960" xmlns="http://www.w3.org/2000/svg"><g fill="none" fill-rule="evenodd"><path d="m545.765281 25.3215863c.538534.0675413 1.029603.1396964 1.476422.2162322l-.003866-.0100817c25.191997 1.3146217 50.559753 5.1000535 75.852834 11.5209734 225.441896 57.2308438 359.580962 302.1655148 299.607991 547.0768998-50.855306 207.677606-224.957508 348.651291-414.179583 351.819856l.006314-.008655c-21.817886 1.289832-50.818634 1.402316-90.646646.357941-13.538014-.354995-69.551642-8.642209-82.969418-12.048355-225.441896-57.229158-359.5809624-302.156614-299.6079907-547.060785 43.4801299-177.554403 177.0520327-306.3505995 333.1388547-341.9533212 44.018319-10.0403861 131.241169-15.6904101 177.325088-9.9107045z" stroke="#000" stroke-linecap="round" stroke-linejoin="round" stroke-width="40"/><path d="m623.169196 924.81862c226.176837-57.339198 360.753198-302.7376 300.584714-548.112671-60.168484-245.375072-292.297232-397.8082657-518.47407-340.4690676-226.176838 57.3391982-360.7531983 302.7376006-300.584714 548.1126716 60.168484 245.375072 292.297232 397.808265 518.47407 340.469067z" stroke="#000" stroke-linecap="round" stroke-linejoin="round" stroke-width="20" transform="matrix(-1 0 0 1 1028.449036 0)"/><g fill="#000"><path d="m405.652309 924.924838c-136.267784-34.587121-239.256231-137.579464-286.368157-267.722181 53.518981 113.44252 153.489495 201.435966 282.141377 232.801536 208.682539 50.877194 422.268491-64.442907 509.884322-263.311608-75.030869 220.326187-292.977919 352.214021-505.657542 298.232253z"/><path d="m579.497228 785.140667c100.782119-25.549768 160.747989-134.896823 133.937519-244.233481-26.81047-109.336659-130.2447-177.259353-231.026819-151.709585-100.782119 25.549769-160.747989 134.896823-133.937519 244.233482 26.81047 109.336658 130.2447 177.259353 231.026819 151.709584z" transform="matrix(-1 0 0 1 1061.905156 0)"/><g transform="matrix(-1 0 0 1 1066.087172 0)"><path d="m537.286563 96.3577315c8.80872-2.2331418 14.049953-11.7904678 11.706621-21.3468853-2.343332-9.5564174-11.383856-15.4931054-20.192575-13.2599637-8.80872 2.2331418-14.049953 11.7904679-11.706622 21.3468853 2.343332 9.5564175 11.383856 15.4931054 20.192576 13.2599637z"/><path d="m536.288215 146.652533c6.73608-1.707697 10.744082-9.01624 8.952122-16.324089-1.791959-7.307848-8.705301-11.847669-15.441381-10.139972s-10.744081 9.01624-8.952122 16.324089c1.791959 7.307848 8.705301 11.847669 15.441381 10.139972z"/></g></g></g></svg>