<svg height="960" viewBox="0 0 960 960" width="960" xmlns="http://www.w3.org/2000/svg"><g fill="none" fill-rule="evenodd" transform="matrix(-1 0 0 1 883.907388 23)"><path d="m249.858325.46930281 255.374129 18.56036609.182402.4443514c57.926376.3863684 110.96979 24.484146 152.170419 64.2851662l-.585275-.2898837c36.26875 18.3487552 61.006758 34.8588902 74.214022 49.5304052 19.810897 22.007272 33.785978 41.467802 33.785978 62.720795v161.283242c0 13.639916-2.629109 39.955136-22.069811 64.987401-.095902 182.287385-.148951 289.116487-.160317 320.496431l-.000837 2.398735c-.000124.371739-.00024.729452-.000349 1.07314l-.000557 1.893824c-.000078.287587-.000148.561148-.00021.820684l-.000372 2.441219c0 22.100041 3.406278 88.79088-51.17507 104.55581-26.662084 7.700907-130.365665 30.364512-182.330025 39.858055-4.763554.870269-8.829681 1.425608-12.312223 1.709886-62.223394 11.849784-159.475072 23.01686-219.284124 7.965983-66.053917-16.62239-100.283906-27.318281-130.977244-44.226473-30.693337-16.908191-42.282845-38.169073-46.094131-114.016267-2.5408568-50.564796-5.0724335-135.087717-7.59473-253.568764l.0047908-.178845c-56.572017-50.292159-93.0047908-129.123175-93.0047908-217.745261 0-151.878306 107.003945-275.00000019 239-275.00000019 3.633932 0 7.248922.09331819 10.843258.27798552z" stroke="#000" stroke-linecap="round" stroke-linejoin="round" stroke-width="40"/><ellipse cx="242.724148" cy="277.315297" rx="28.651405" ry="33.131113" stroke="#004dff" stroke-width="2"/><g fill="#000"><ellipse cx="242.724148" cy="277.315297" rx="29.651405" ry="34.131113"/><ellipse cx="448.577426" cy="277.315297" rx="29.651405" ry="34.131113"/><ellipse cx="321.322635" cy="833.545786" rx="28.66875" ry="33"/><ellipse cx="327.615417" cy="833.545786" rx="28.66875" ry="33"/></g><g stroke="#000" stroke-linecap="round" stroke-linejoin="round" stroke-width="20"><ellipse cx="234.299763" cy="273.5" rx="234" ry="262.5"/><path d="m236 .46930281c21.371284 0 42.079088 3.1596744 61.76642 9.08194628l1.971452-.04738165 3.762128-.03456463c125.644781 0 227.5 115.51053419 227.5 258.00000019 0 127.379001-81.397947 233.197697-188.423246 254.208557l.089761.472728-98.475186 13.849412c-38.316834 0-67.323864-4.616471-87.02109-13.849412-19.697225-9.232942-43.724955-24.018283-72.0831894-44.356022l14.4152641-.660453c-60.2143669-47.566162-99.5023137-125.762202-99.5023137-214.16481 0-144.974747 105.660799-262.50000019 236-262.50000019z"/><path d="m291 34.4693028c-63.437084 21.3254887-115.071299 69.6170582-142.187549 131.7559182m-20.812451 95.244082c0 16.433858 1.720698 32.485274 5 48m32 88c37.930329 61.006166 101.496609 103.407803 175 111"/><path d="m569.624267 279.98179c0-154.629673-110.832782-279.98179-247.551947-279.98179m247.551947 275.182102c3.430569 326.603882 5.145854 497.269423 5.145854 511.996623 0 22.090799 0 93.958569-59.718575 106.901606s-171.331085 28.30412-237.319222 11.676667c-65.988137-16.627454-100.184038-27.326603-130.84681-44.239945s-42.240739-38.180699-46.048229-114.050997c-2.5383266-50.580198-5.0673823-135.128865-7.5871669-253.646002"/></g><path d="m763.110302 258.116545h17.598855c15.021168 0 27.198231 12.177063 27.198231 27.198231s-12.177063 27.198231-27.198231 27.198231h-17.598855z" fill="#000"/><path d="m732.652257 540.798512.347743-242.329209c1.255284-94.767943-28.911606-166.43461-90.50067-215.0000002" stroke="#000" stroke-linecap="round" stroke-linejoin="round" stroke-width="20"/><path d="m68.4316166 165.117263c-8.6799148 18.749676-14.3621464 33.369143-17.0466947 43.858402-2.6845484 10.489258-5.3690967 23.789562-8.0536451 39.900911h29.7383508l99.9680424 5.044718v-81.369336z" stroke="#000" stroke-linecap="round" stroke-linejoin="round" stroke-width="20"/><path d="m45.7650835 315.554729c2.0032918 19.79 5.1028281 34.916581 9.2986091 45.379741 6.2936715 15.694741 14.0397547 35.039196 16.9544091 38.115788 1.9431029 2.051061 34.8361203 1.372282 98.6790533-2.036336l2.340515-86.150617-99.5745359 1.514649z" stroke="#000" stroke-linecap="round" stroke-linejoin="round" stroke-width="20"/></g></svg>